<mxfile host="app.diagrams.net" modified="2022-06-10T15:49:30.882Z" agent="5.0 (Windows NT 10.0; Win64; x64) AppleWebKit/537.36 (KHTML, like Gecko) Chrome/102.0.5005.63 Safari/537.36 Edg/102.0.1245.33" etag="oBqYF2BsI2Y1JJTboyAD" version="19.0.2" type="github">
  <diagram id="HcsfFl9g7V0FRWXSdSq_" name="Page-1">
    <mxGraphModel dx="1550" dy="867" grid="1" gridSize="10" guides="1" tooltips="1" connect="1" arrows="1" fold="1" page="1" pageScale="1" pageWidth="827" pageHeight="1169" math="0" shadow="0">
      <root>
        <mxCell id="0" />
        <mxCell id="1" parent="0" />
        <mxCell id="4ByV9pCJio81mr7QgiK5-8" value="" style="edgeStyle=orthogonalEdgeStyle;rounded=0;orthogonalLoop=1;jettySize=auto;html=1;" edge="1" parent="1" source="4ByV9pCJio81mr7QgiK5-1" target="4ByV9pCJio81mr7QgiK5-2">
          <mxGeometry relative="1" as="geometry" />
        </mxCell>
        <mxCell id="4ByV9pCJio81mr7QgiK5-1" value="中断服务程序开始" style="ellipse;whiteSpace=wrap;html=1;" vertex="1" parent="1">
          <mxGeometry x="354" y="30" width="120" height="80" as="geometry" />
        </mxCell>
        <mxCell id="4ByV9pCJio81mr7QgiK5-9" value="" style="edgeStyle=orthogonalEdgeStyle;rounded=0;orthogonalLoop=1;jettySize=auto;html=1;" edge="1" parent="1" source="4ByV9pCJio81mr7QgiK5-2" target="4ByV9pCJio81mr7QgiK5-3">
          <mxGeometry relative="1" as="geometry" />
        </mxCell>
        <mxCell id="4ByV9pCJio81mr7QgiK5-2" value="取当前时间低四位" style="rounded=0;whiteSpace=wrap;html=1;" vertex="1" parent="1">
          <mxGeometry x="354" y="150" width="120" height="60" as="geometry" />
        </mxCell>
        <mxCell id="4ByV9pCJio81mr7QgiK5-10" value="" style="edgeStyle=orthogonalEdgeStyle;rounded=0;orthogonalLoop=1;jettySize=auto;html=1;" edge="1" parent="1" source="4ByV9pCJio81mr7QgiK5-3" target="4ByV9pCJio81mr7QgiK5-4">
          <mxGeometry relative="1" as="geometry" />
        </mxCell>
        <mxCell id="4ByV9pCJio81mr7QgiK5-3" value="获得时间个位数段码，右边数码管输出段码" style="rounded=0;whiteSpace=wrap;html=1;" vertex="1" parent="1">
          <mxGeometry x="354" y="250" width="120" height="60" as="geometry" />
        </mxCell>
        <mxCell id="4ByV9pCJio81mr7QgiK5-11" value="" style="edgeStyle=orthogonalEdgeStyle;rounded=0;orthogonalLoop=1;jettySize=auto;html=1;" edge="1" parent="1" source="4ByV9pCJio81mr7QgiK5-4" target="4ByV9pCJio81mr7QgiK5-5">
          <mxGeometry relative="1" as="geometry" />
        </mxCell>
        <mxCell id="4ByV9pCJio81mr7QgiK5-4" value="取当前时间高四位" style="rounded=0;whiteSpace=wrap;html=1;" vertex="1" parent="1">
          <mxGeometry x="354" y="350" width="120" height="60" as="geometry" />
        </mxCell>
        <mxCell id="4ByV9pCJio81mr7QgiK5-12" value="" style="edgeStyle=orthogonalEdgeStyle;rounded=0;orthogonalLoop=1;jettySize=auto;html=1;" edge="1" parent="1" source="4ByV9pCJio81mr7QgiK5-5" target="4ByV9pCJio81mr7QgiK5-6">
          <mxGeometry relative="1" as="geometry" />
        </mxCell>
        <mxCell id="4ByV9pCJio81mr7QgiK5-5" value="&lt;span style=&quot;&quot;&gt;获得时间十位数段码，左边数码管输出段码&lt;/span&gt;" style="rounded=0;whiteSpace=wrap;html=1;" vertex="1" parent="1">
          <mxGeometry x="354" y="450" width="120" height="60" as="geometry" />
        </mxCell>
        <mxCell id="4ByV9pCJio81mr7QgiK5-13" value="" style="edgeStyle=orthogonalEdgeStyle;rounded=0;orthogonalLoop=1;jettySize=auto;html=1;" edge="1" parent="1" source="4ByV9pCJio81mr7QgiK5-6" target="4ByV9pCJio81mr7QgiK5-7">
          <mxGeometry relative="1" as="geometry" />
        </mxCell>
        <mxCell id="4ByV9pCJio81mr7QgiK5-6" value="中断结束" style="rounded=0;whiteSpace=wrap;html=1;" vertex="1" parent="1">
          <mxGeometry x="354" y="555" width="120" height="60" as="geometry" />
        </mxCell>
        <mxCell id="4ByV9pCJio81mr7QgiK5-7" value="中断返回" style="ellipse;whiteSpace=wrap;html=1;" vertex="1" parent="1">
          <mxGeometry x="354" y="660" width="120" height="80" as="geometry" />
        </mxCell>
      </root>
    </mxGraphModel>
  </diagram>
</mxfile>
